<svg width="24" height="25" viewBox="0 0 24 25" fill="none" xmlns="http://www.w3.org/2000/svg">
<g clip-path="url(#clip0_334_4043)">
<path d="M11.99 2.20508C6.47 2.20508 2 6.68508 2 12.2051C2 17.7251 6.47 22.2051 11.99 22.2051C17.52 22.2051 22 17.7251 22 12.2051C22 6.68508 17.52 2.20508 11.99 2.20508ZM12 20.2051C7.58 20.2051 4 16.6251 4 12.2051C4 7.78508 7.58 4.20508 12 4.20508C16.42 4.20508 20 7.78508 20 12.2051C20 16.6251 16.42 20.2051 12 20.2051Z" fill="#FDFDFD"/>
<path d="M12.5 7.20508H11V13.2051L16.25 16.3551L17 15.1251L12.5 12.4551V7.20508Z" fill="#FDFDFD"/>
</g>
<defs>
<clipPath id="clip0_334_4043">
<rect width="24" height="24" fill="white" transform="translate(0 0.205078)"/>
</clipPath>
</defs>
</svg>
