<svg width="24" height="25" viewBox="0 0 24 25" fill="none" xmlns="http://www.w3.org/2000/svg">
<g clip-path="url(#clip0_334_4084)">
<path d="M12 2.20508C6.48 2.20508 2 6.68508 2 12.2051C2 17.7251 6.48 22.2051 12 22.2051C17.52 22.2051 22 17.7251 22 12.2051C22 6.68508 17.52 2.20508 12 2.20508ZM12 20.2051C7.59 20.2051 4 16.6151 4 12.2051C4 7.79508 7.59 4.20508 12 4.20508C16.41 4.20508 20 7.79508 20 12.2051C20 16.6151 16.41 20.2051 12 20.2051ZM6.5 17.7051L14.01 14.2151L17.5 6.70508L9.99 10.1951L6.5 17.7051ZM12 11.1051C12.61 11.1051 13.1 11.5951 13.1 12.2051C13.1 12.8151 12.61 13.3051 12 13.3051C11.39 13.3051 10.9 12.8151 10.9 12.2051C10.9 11.5951 11.39 11.1051 12 11.1051Z" fill="#FDFDFD"/>
</g>
<defs>
<clipPath id="clip0_334_4084">
<rect width="24" height="24" fill="white" transform="translate(0 0.205078)"/>
</clipPath>
</defs>
</svg>
