<svg width="24" height="25" viewBox="0 0 24 25" fill="none" xmlns="http://www.w3.org/2000/svg">
<path d="M11.6667 5.53857C9.08667 5.53857 7 7.62524 7 10.2052C7 13.7052 11.6667 18.8719 11.6667 18.8719C11.6667 18.8719 16.3333 13.7052 16.3333 10.2052C16.3333 7.62524 14.2467 5.53857 11.6667 5.53857ZM8.33333 10.2052C8.33333 8.36524 9.82667 6.87191 11.6667 6.87191C13.5067 6.87191 15 8.36524 15 10.2052C15 12.1252 13.08 14.9986 11.6667 16.7919C10.28 15.0119 8.33333 12.1052 8.33333 10.2052Z" fill="#FDFDFD"/>
<path d="M12 11.8719C12.9205 11.8719 13.6667 11.1257 13.6667 10.2052C13.6667 9.28477 12.9205 8.53857 12 8.53857C11.0796 8.53857 10.3334 9.28477 10.3334 10.2052C10.3334 11.1257 11.0796 11.8719 12 11.8719Z" fill="#FDFDFD"/>
</svg>
