<svg width="74" height="16" viewBox="0 0 74 16" fill="none" xmlns="http://www.w3.org/2000/svg">
<path d="M10.5215 2.00508L4.76148 7.90508L4.52148 8.16508L0.981484 11.7851V9.62508L8.42149 2.00508H10.5215ZM1.78148 2.00508V15.2051H0.181484V2.00508H1.78148ZM4.92148 6.88508L10.5815 15.2051H8.66148L3.60148 7.78508L4.92148 6.88508ZM16.3066 5.00508C17.2533 5.00508 18.0866 5.21174 18.8066 5.62508C19.54 6.03841 20.1133 6.63841 20.5266 7.42508C20.94 8.19841 21.1466 9.12508 21.1466 10.2051C21.1466 11.2851 20.94 12.2184 20.5266 13.0051C20.1133 13.7784 19.54 14.3717 18.8066 14.7851C18.0866 15.1984 17.2533 15.4051 16.3066 15.4051C15.3733 15.4051 14.54 15.1984 13.8066 14.7851C13.0733 14.3717 12.5 13.7784 12.0866 13.0051C11.6733 12.2184 11.4666 11.2851 11.4666 10.2051C11.4666 9.12508 11.6733 8.19841 12.0866 7.42508C12.5 6.63841 13.0733 6.03841 13.8066 5.62508C14.54 5.21174 15.3733 5.00508 16.3066 5.00508ZM16.3066 6.38508C15.6266 6.38508 15.0466 6.53841 14.5666 6.84508C14.0866 7.15174 13.7133 7.59174 13.4466 8.16508C13.1933 8.72508 13.0666 9.40508 13.0666 10.2051C13.0666 10.9917 13.1933 11.6717 13.4466 12.2451C13.7133 12.8184 14.0866 13.2584 14.5666 13.5651C15.0466 13.8717 15.6266 14.0251 16.3066 14.0251C16.9866 14.0251 17.5666 13.8717 18.0466 13.5651C18.5266 13.2584 18.8933 12.8184 19.1466 12.2451C19.4133 11.6717 19.5466 10.9917 19.5466 10.2051C19.5466 9.40508 19.4133 8.72508 19.1466 8.16508C18.8933 7.59174 18.5266 7.15174 18.0466 6.84508C17.5666 6.53841 16.9866 6.38508 16.3066 6.38508ZM24.1588 15.2051V5.20508H25.5588L25.6988 7.44508L25.4388 7.22508C25.6522 6.69174 25.9388 6.26508 26.2988 5.94508C26.6588 5.61174 27.0722 5.37174 27.5388 5.22508C28.0188 5.07841 28.5122 5.00508 29.0188 5.00508C29.7388 5.00508 30.3922 5.14508 30.9788 5.42508C31.5655 5.69174 32.0322 6.10508 32.3788 6.66508C32.7388 7.22508 32.9188 7.93841 32.9188 8.80508V15.2051H31.3188V9.36508C31.3188 8.25841 31.0788 7.49174 30.5988 7.06508C30.1322 6.62508 29.5522 6.40508 28.8588 6.40508C28.3788 6.40508 27.8988 6.51841 27.4188 6.74508C26.9388 6.97174 26.5388 7.33841 26.2188 7.84508C25.9122 8.35174 25.7588 9.03174 25.7588 9.88508V15.2051H24.1588ZM38.7649 2.36508V12.4451C38.7649 12.9384 38.9049 13.3051 39.1849 13.5451C39.4649 13.7851 39.8249 13.9051 40.2649 13.9051C40.6516 13.9051 40.9849 13.8384 41.2649 13.7051C41.5449 13.5717 41.7983 13.3917 42.0249 13.1651L42.5849 14.5051C42.2783 14.7851 41.9116 15.0051 41.4849 15.1651C41.0716 15.3251 40.5916 15.4051 40.0449 15.4051C39.5383 15.4051 39.0649 15.3184 38.6249 15.1451C38.1849 14.9584 37.8316 14.6717 37.5649 14.2851C37.3116 13.8851 37.1783 13.3651 37.1649 12.7251V2.80508L38.7649 2.36508ZM42.4049 5.20508V6.58508H35.1649V5.20508H42.4049ZM50.6238 8.74508C50.6238 7.99841 50.4238 7.42508 50.0238 7.02508C49.6238 6.61174 49.0572 6.40508 48.3238 6.40508C47.6305 6.40508 47.0438 6.55841 46.5638 6.86508C46.0838 7.15841 45.7305 7.63841 45.5038 8.30508L44.2038 7.50508C44.4705 6.75841 44.9638 6.15841 45.6838 5.70508C46.4038 5.23841 47.2972 5.00508 48.3638 5.00508C49.0838 5.00508 49.7372 5.13174 50.3238 5.38508C50.9105 5.62508 51.3705 5.99841 51.7038 6.50508C52.0505 6.99841 52.2238 7.63841 52.2238 8.42508V13.2651C52.2238 13.7451 52.4772 13.9851 52.9838 13.9851C53.2372 13.9851 53.4838 13.9517 53.7238 13.8851L53.6438 15.1451C53.3772 15.2784 53.0305 15.3451 52.6038 15.3451C52.2172 15.3451 51.8705 15.2717 51.5638 15.1251C51.2572 14.9784 51.0172 14.7584 50.8438 14.4651C50.6705 14.1584 50.5838 13.7784 50.5838 13.3251V13.1251L50.9838 13.1851C50.8238 13.7051 50.5505 14.1317 50.1638 14.4651C49.7772 14.7851 49.3438 15.0251 48.8638 15.1851C48.3838 15.3317 47.9105 15.4051 47.4438 15.4051C46.8572 15.4051 46.3105 15.3051 45.8038 15.1051C45.2972 14.9051 44.8905 14.6051 44.5838 14.2051C44.2905 13.7917 44.1438 13.2851 44.1438 12.6851C44.1438 11.9384 44.3905 11.3251 44.8838 10.8451C45.3905 10.3517 46.0905 10.0184 46.9838 9.84508L50.9438 9.06508V10.3851L47.7238 11.0451C47.0705 11.1784 46.5838 11.3651 46.2638 11.6051C45.9438 11.8451 45.7838 12.1784 45.7838 12.6051C45.7838 13.0184 45.9438 13.3584 46.2638 13.6251C46.5972 13.8784 47.0638 14.0051 47.6638 14.0051C48.0505 14.0051 48.4172 13.9584 48.7638 13.8651C49.1238 13.7584 49.4438 13.6051 49.7238 13.4051C50.0038 13.1917 50.2238 12.9317 50.3838 12.6251C50.5438 12.3051 50.6238 11.9317 50.6238 11.5051V8.74508ZM64.892 5.20508L60.572 9.52508L60.192 9.90508L56.912 13.1851V11.1851L62.872 5.20508H64.892ZM57.712 0.605078V15.2051H56.112V0.605078H57.712ZM60.712 8.70508L65.132 15.2051H63.192L59.372 9.60508L60.712 8.70508ZM69.8196 2.36508V12.4451C69.8196 12.9384 69.9596 13.3051 70.2396 13.5451C70.5196 13.7851 70.8796 13.9051 71.3196 13.9051C71.7063 13.9051 72.0396 13.8384 72.3196 13.7051C72.5996 13.5717 72.8529 13.3917 73.0796 13.1651L73.6396 14.5051C73.3329 14.7851 72.9663 15.0051 72.5396 15.1651C72.1263 15.3251 71.6463 15.4051 71.0996 15.4051C70.5929 15.4051 70.1196 15.3184 69.6796 15.1451C69.2396 14.9584 68.8863 14.6717 68.6196 14.2851C68.3663 13.8851 68.2329 13.3651 68.2196 12.7251V2.80508L69.8196 2.36508ZM73.4596 5.20508V6.58508H66.2196V5.20508H73.4596Z" fill="#FDFDFD"/>
</svg>
