<svg width="24" height="25" viewBox="0 0 24 25" fill="none" xmlns="http://www.w3.org/2000/svg">
<path d="M8.36 7.53841C8.4 8.13174 8.5 8.71175 8.66 9.26508L7.86 10.0651C7.58667 9.26508 7.41333 8.41841 7.35333 7.53841H8.36ZM14.9333 15.5517C15.5 15.7117 16.08 15.8117 16.6667 15.8517V16.8451C15.7867 16.7851 14.94 16.6117 14.1333 16.3451L14.9333 15.5517ZM9 6.20508H6.66667C6.3 6.20508 6 6.50508 6 6.87174C6 13.1317 11.0733 18.2051 17.3333 18.2051C17.7 18.2051 18 17.9051 18 17.5384V15.2117C18 14.8451 17.7 14.5451 17.3333 14.5451C16.5067 14.5451 15.7 14.4117 14.9533 14.1651C14.8867 14.1384 14.8133 14.1317 14.7467 14.1317C14.5733 14.1317 14.4067 14.1984 14.2733 14.3251L12.8067 15.7917C10.92 14.8251 9.37333 13.2851 8.41333 11.3984L9.88 9.93175C10.0667 9.74508 10.12 9.48508 10.0467 9.25174C9.8 8.50508 9.66667 7.70508 9.66667 6.87174C9.66667 6.50508 9.36667 6.20508 9 6.20508Z" fill="#FDFDFD"/>
</svg>
