<svg width="24" height="25" viewBox="0 0 24 25" fill="none" xmlns="http://www.w3.org/2000/svg">
<g clip-path="url(#clip0_216_4100)">
<path d="M15.5 14.3386H14.71L14.43 14.0686C15.41 12.9286 16 11.4486 16 9.83856C16 6.24856 13.09 3.33856 9.5 3.33856C5.91 3.33856 3 6.24856 3 9.83856C3 13.4286 5.91 16.3386 9.5 16.3386C11.11 16.3386 12.59 15.7486 13.73 14.7686L14 15.0486V15.8386L19 20.8286L20.49 19.3386L15.5 14.3386ZM9.5 14.3386C7.01 14.3386 5 12.3286 5 9.83856C5 7.34856 7.01 5.33856 9.5 5.33856C11.99 5.33856 14 7.34856 14 9.83856C14 12.3286 11.99 14.3386 9.5 14.3386Z" fill="#141312"/>
</g>
<defs>
<clipPath id="clip0_216_4100">
<rect width="24" height="24" fill="white" transform="translate(0 0.338562)"/>
</clipPath>
</defs>
</svg>
