<svg width="20" height="19" viewBox="0 0 20 19" fill="none" xmlns="http://www.w3.org/2000/svg">
<path d="M19 9.42508C19 3.93508 14.74 0.205078 10 0.205078C5.31 0.205078 1 3.85508 1 9.48508C0.4 9.82508 0 10.4651 0 11.2051V13.2051C0 14.3051 0.9 15.2051 2 15.2051H3V9.10508C3 5.23508 6.13 2.10508 10 2.10508C13.87 2.10508 17 5.23508 17 9.10508V16.2051H9V18.2051H17C18.1 18.2051 19 17.3051 19 16.2051V14.9851C19.59 14.6751 20 14.0651 20 13.3451V11.0451C20 10.3451 19.59 9.73508 19 9.42508Z" fill="#FDFDFD"/>
<path d="M7 11.2051C7.55228 11.2051 8 10.7574 8 10.2051C8 9.65279 7.55228 9.20508 7 9.20508C6.44772 9.20508 6 9.65279 6 10.2051C6 10.7574 6.44772 11.2051 7 11.2051Z" fill="#FDFDFD"/>
<path d="M13 11.2051C13.5523 11.2051 14 10.7574 14 10.2051C14 9.65279 13.5523 9.20508 13 9.20508C12.4477 9.20508 12 9.65279 12 10.2051C12 10.7574 12.4477 11.2051 13 11.2051Z" fill="#FDFDFD"/>
<path d="M16 8.23508C15.52 5.38508 13.04 3.20508 10.05 3.20508C7.01997 3.20508 3.75997 5.71508 4.01997 9.65508C6.48997 8.64508 8.34997 6.44508 8.87997 3.76508C10.19 6.39508 12.88 8.20508 16 8.23508Z" fill="#FDFDFD"/>
</svg>
